<svg width="30" height="30" viewBox="0 0 30 30" fill="none" xmlns="http://www.w3.org/2000/svg">
<g clip-path="url(#clip0_13_344)">
<path d="M15.0101 29.7845C6.73428 29.7845 0 23.0986 0 14.9023C0 6.70604 6.73428 0 15.0101 0C23.286 0 30.0203 6.6859 30.0203 14.9023C30.0203 23.1187 23.286 29.8046 15.0101 29.8046V29.7845ZM15.0101 1.00691C7.28195 1.00691 1.0142 7.22964 1.0142 14.9023C1.0142 22.575 7.28195 28.7977 15.0101 28.7977C22.7383 28.7977 29.0061 22.575 29.0061 14.9023C29.0061 7.22964 22.7181 1.00691 15.0101 1.00691Z" fill="white"/>
<path d="M15.01 29.7241C14.7261 29.7241 14.5029 29.5026 14.5029 29.2206V0.563881C14.5029 0.281946 14.7261 0.0604248 15.01 0.0604248C15.294 0.0604248 15.5171 0.281946 15.5171 0.563881V29.2005C15.5171 29.4824 15.294 29.7039 15.01 29.7039V29.7241Z" fill="white"/>
<path d="M29.432 15.4058H0.56789C0.283915 15.4058 0.060791 15.1843 0.060791 14.9023C0.060791 14.6204 0.283915 14.3989 0.56789 14.3989H29.4117C29.6957 14.3989 29.9188 14.6204 29.9188 14.9023C29.9188 15.1843 29.6957 15.4058 29.4117 15.4058H29.432Z" fill="white"/>
</g>
<defs>
<clipPath id="clip0_13_344">
<rect width="30" height="29.7845" fill="white"/>
</clipPath>
</defs>
</svg>
