<svg width="39" height="39" viewBox="0 0 39 39" fill="none" xmlns="http://www.w3.org/2000/svg">
<rect width="39" height="39" rx="8" fill="#DBB76F"/>
<path d="M31.5 7.5H8.5C7.94687 7.5 7.5 7.94687 7.5 8.5V31.5C7.5 32.0531 7.94687 32.5 8.5 32.5H31.5C32.0531 32.5 32.5 32.0531 32.5 31.5V8.5C32.5 7.94687 32.0531 7.5 31.5 7.5ZM28.6125 14.7969H26.6156C25.05 14.7969 24.7469 15.5406 24.7469 16.6344V19.0437H28.4844L27.9969 22.8156H24.7469V32.5H20.85V22.8188H17.5906V19.0437H20.85V16.2625C20.85 13.0344 22.8219 11.275 25.7031 11.275C27.0844 11.275 28.2688 11.3781 28.6156 11.425V14.7969H28.6125Z" fill="#092650"/>
</svg>
