<svg width="39" height="39" viewBox="0 0 39 39" fill="none" xmlns="http://www.w3.org/2000/svg">
<rect width="39" height="39" rx="8" fill="#DBB76F"/>
<path d="M21.3708 6.6665C22.8708 6.6705 23.6321 6.6785 24.2894 6.69717L24.5481 6.7065C24.8468 6.71717 25.1414 6.7305 25.4974 6.7465C26.9161 6.81317 27.8841 7.03717 28.7334 7.3665C29.6134 7.70517 30.3548 8.16384 31.0961 8.90384C31.7744 9.57015 32.299 10.3765 32.6334 11.2665C32.9628 12.1158 33.1868 13.0838 33.2534 14.5038C33.2694 14.8585 33.2828 15.1532 33.2934 15.4532L33.3014 15.7118C33.3214 16.3678 33.3294 17.1292 33.3321 18.6292L33.3334 19.6238V21.3705C33.3367 22.343 33.3265 23.3156 33.3028 24.2878L33.2948 24.5465C33.2841 24.8465 33.2708 25.1412 33.2548 25.4958C33.1881 26.9158 32.9614 27.8825 32.6334 28.7332C32.299 29.6232 31.7744 30.4295 31.0961 31.0958C30.4298 31.7741 29.6235 32.2987 28.7334 32.6332C27.8841 32.9625 26.9161 33.1865 25.4974 33.2532L24.5481 33.2932L24.2894 33.3012C23.6321 33.3198 22.8708 33.3292 21.3708 33.3318L20.3761 33.3332H18.6308C17.6578 33.3366 16.6848 33.3264 15.7121 33.3025L15.4534 33.2945C15.1369 33.2825 14.8205 33.2687 14.5041 33.2532C13.0854 33.1865 12.1174 32.9625 11.2668 32.6332C10.3772 32.2986 9.57136 31.7739 8.90544 31.0958C8.2267 30.4297 7.70159 29.6233 7.36677 28.7332C7.03744 27.8838 6.81344 26.9158 6.74677 25.4958L6.70677 24.5465L6.70011 24.2878C6.67553 23.3156 6.66442 22.3431 6.66677 21.3705V18.6292C6.66308 17.6566 6.67286 16.6841 6.69611 15.7118L6.70544 15.4532C6.71611 15.1532 6.72944 14.8585 6.74544 14.5038C6.81211 13.0838 7.03611 12.1172 7.36544 11.2665C7.70103 10.3761 8.22707 9.56975 8.90677 8.90384C9.57231 8.2259 10.3777 7.70127 11.2668 7.3665C12.1174 7.03717 13.0841 6.81317 14.5041 6.7465C14.8588 6.7305 15.1548 6.71717 15.4534 6.7065L15.7121 6.6985C16.6844 6.67481 17.6569 6.66459 18.6294 6.66784L21.3708 6.6665ZM20.0001 13.3332C18.232 13.3332 16.5363 14.0355 15.2861 15.2858C14.0358 16.536 13.3334 18.2317 13.3334 19.9998C13.3334 21.7679 14.0358 23.4636 15.2861 24.7139C16.5363 25.9641 18.232 26.6665 20.0001 26.6665C21.7682 26.6665 23.4639 25.9641 24.7142 24.7139C25.9644 23.4636 26.6668 21.7679 26.6668 19.9998C26.6668 18.2317 25.9644 16.536 24.7142 15.2858C23.4639 14.0355 21.7682 13.3332 20.0001 13.3332ZM20.0001 15.9998C20.5254 15.9998 21.0456 16.1031 21.5309 16.3041C22.0162 16.505 22.4572 16.7996 22.8287 17.1709C23.2002 17.5423 23.4949 17.9832 23.696 18.4685C23.8971 18.9538 24.0007 19.4739 24.0008 19.9992C24.0009 20.5245 23.8975 21.0446 23.6965 21.53C23.4956 22.0153 23.201 22.4563 22.8297 22.8278C22.4583 23.1993 22.0174 23.494 21.5321 23.6951C21.0469 23.8962 20.5267 23.9998 20.0014 23.9998C18.9406 23.9998 17.9232 23.5784 17.173 22.8283C16.4229 22.0781 16.0014 21.0607 16.0014 19.9998C16.0014 18.939 16.4229 17.9216 17.173 17.1714C17.9232 16.4213 18.9406 15.9998 20.0014 15.9998M27.0014 11.3332C26.5594 11.3332 26.1355 11.5088 25.8229 11.8213C25.5104 12.1339 25.3348 12.5578 25.3348 12.9998C25.3348 13.4419 25.5104 13.8658 25.8229 14.1783C26.1355 14.4909 26.5594 14.6665 27.0014 14.6665C27.4435 14.6665 27.8674 14.4909 28.18 14.1783C28.4925 13.8658 28.6681 13.4419 28.6681 12.9998C28.6681 12.5578 28.4925 12.1339 28.18 11.8213C27.8674 11.5088 27.4435 11.3332 27.0014 11.3332Z" fill="#092650"/>
</svg>
