<svg width="39" height="39" viewBox="0 0 39 39" fill="none" xmlns="http://www.w3.org/2000/svg">
<rect width="39" height="39" rx="8" fill="#DBB76F"/>
<path d="M32 6H7.99375C6.89375 6 6 6.90625 6 8.01875V31.9813C6 33.0938 6.89375 34 7.99375 34H32C33.1 34 34 33.0938 34 31.9813V8.01875C34 6.90625 33.1 6 32 6ZM14.4625 30H10.3125V16.6375H14.4688V30H14.4625ZM12.3875 10C13.0257 10 13.6377 10.2535 14.089 10.7048C14.5402 11.156 14.7937 11.7681 14.7937 12.4062C14.7937 13.0444 14.5402 13.6565 14.089 14.1077C13.6377 14.559 13.0257 14.8125 12.3875 14.8125C11.7493 14.8125 11.1373 14.559 10.686 14.1077C10.2348 13.6565 9.98125 13.0444 9.98125 12.4062C9.98125 11.7681 10.2348 11.156 10.686 10.7048C11.1373 10.2535 11.7493 10 12.3875 10ZM30.0187 30H25.8687V23.5C25.8687 21.95 25.8375 19.9563 23.7125 19.9563C21.55 19.9563 21.2188 21.6438 21.2188 23.3875V30H17.0688V16.6375H21.05V18.4625H21.1062C21.6625 17.4125 23.0188 16.3062 25.0375 16.3062C29.2375 16.3062 30.0187 19.075 30.0187 22.675V30Z" fill="#092650"/>
</svg>
