<svg width="39" height="39" viewBox="0 0 39 39" fill="none" xmlns="http://www.w3.org/2000/svg">
<rect width="39" height="39" rx="8" fill="#DBB76F"/>
<path d="M33.4156 13.2531C33.2562 12.6595 32.9437 12.1181 32.5094 11.6832C32.075 11.2483 31.5341 10.9351 30.9406 10.775C28.7562 10.1875 20 10.1875 20 10.1875C20 10.1875 11.2437 10.1875 9.05937 10.7719C8.46569 10.9315 7.92445 11.2445 7.49002 11.6795C7.05558 12.1145 6.74325 12.6561 6.58437 13.25C6 15.4375 6 20 6 20C6 20 6 24.5625 6.58437 26.7469C6.90625 27.9531 7.85625 28.9031 9.05937 29.225C11.2437 29.8125 20 29.8125 20 29.8125C20 29.8125 28.7562 29.8125 30.9406 29.225C32.1469 28.9031 33.0938 27.9531 33.4156 26.7469C34 24.5625 34 20 34 20C34 20 34 15.4375 33.4156 13.2531ZM17.2188 24.1875V15.8125L24.4688 19.9688L17.2188 24.1875Z" fill="#092650"/>
</svg>
