<svg width="176" height="73" viewBox="0 0 176 73" fill="none" xmlns="http://www.w3.org/2000/svg">
<path d="M93.623 23.1965C92.1886 24.1898 91.4934 24.4359 90.059 24.4359C86.7238 24.4359 84.251 21.8165 84.251 18.2742C84.251 14.7318 86.7502 12.1125 90.059 12.1125C93.3678 12.1125 92.171 12.3762 93.4998 13.387L93.975 12.3937H95.1982V16.9381H93.8694C93.5702 15.7163 93.3238 15.1889 92.787 14.6176C92.1358 13.9056 91.2998 13.5364 90.3758 13.5364C88.299 13.5364 86.9878 15.3911 86.9878 18.3005C86.9878 21.21 88.2814 22.9152 90.499 22.9152C92.7166 22.9152 92.0214 22.6691 92.5406 22.2384C92.963 21.8692 93.1038 21.5264 93.1038 20.8232V20.1728C93.1214 19.285 92.9806 19.1971 91.775 19.2147H91.0446V17.8874H97.1958V19.2147H96.4654C95.6294 19.2323 95.5414 19.3377 95.5238 20.2958V24.1898H94.2478L93.6318 23.2141L93.623 23.1965Z" fill="white"/>
<path d="M104.738 12.4553V13.7825H103.919C102.89 13.765 102.749 13.9056 102.767 14.8461V22.7746H104.931C107.413 22.8098 107.976 22.1241 107.994 19.0741H109.323V24.1019H98.4985V22.7746H99.1849C100.197 22.7922 100.32 22.6515 100.32 21.711V14.8461C100.32 13.9056 100.197 13.765 99.1849 13.7825H98.4985V12.4553H104.738Z" fill="white"/>
<path d="M124.141 18.2742C124.141 21.9571 121.572 24.4359 117.761 24.4359C113.951 24.4359 114.391 23.9085 113.212 22.8273C111.936 21.6759 111.32 20.1552 111.32 18.1775C111.32 16.1998 111.997 14.7934 113.212 13.721C114.417 12.6399 115.887 12.1125 117.744 12.1125C121.572 12.1125 124.141 14.5736 124.141 18.2566V18.2742ZM114.057 18.2039C114.057 19.7948 114.321 20.8232 114.963 21.6934C115.614 22.5812 116.556 23.0559 117.744 23.0559C118.932 23.0559 119.856 22.5812 120.507 21.6934C121.141 20.8408 121.413 19.786 121.413 18.2918C121.413 16.7975 121.132 15.6899 120.507 14.8725C119.838 13.9847 118.897 13.5101 117.744 13.5101C115.438 13.5101 114.057 15.2768 114.057 18.2039Z" fill="white"/>
<path d="M125.893 22.7834H126.57C127.582 22.801 127.705 22.6603 127.705 21.7198V14.8725C127.705 13.9144 127.582 13.7913 126.57 13.7913H125.893V12.4641H132.589C135.493 12.4641 136.91 13.4046 136.91 15.3296C136.91 17.2545 136.294 17.4391 134.569 17.9489C135.564 18.1951 135.986 18.3884 136.444 18.7664C137.06 19.2762 137.368 20.0234 137.368 20.9639C137.368 21.9044 137.016 22.7658 136.373 23.2668C135.573 23.8821 134.481 24.1019 132.264 24.1019H125.901V22.7746L125.893 22.7834ZM131.815 17.4216C133.038 17.4216 133.549 17.2985 133.962 16.8766C134.297 16.5777 134.455 16.147 134.455 15.602C134.455 15.0571 134.261 14.5033 133.909 14.222C133.522 13.9232 133.003 13.8001 132 13.8001H130.143V17.4128H131.806L131.815 17.4216ZM132.079 22.801C133.161 22.801 133.813 22.6603 134.209 22.3263C134.596 22.0099 134.825 21.421 134.825 20.7529C134.825 20.0849 134.596 19.5487 134.191 19.2323C133.716 18.8631 133.161 18.74 131.921 18.74H130.152V22.7922H132.079V22.801Z" fill="white"/>
<path d="M139.269 22.7834H139.946C140.958 22.801 141.081 22.6603 141.081 21.7022V14.8725C141.081 13.9144 140.958 13.7738 139.946 13.7913H139.269V12.4641H150.717V17.0963H149.389C149.301 14.3715 148.72 13.7562 146.326 13.7913H143.528V17.3688H144.197C145.737 17.3337 145.877 17.1579 146.053 15.2592H147.382V21.0781H146.053C145.913 18.9862 145.666 18.6697 144.214 18.7049H143.528V22.7922H146.59C148.632 22.8098 149.142 22.1593 149.389 19.1795H150.717V24.1194H139.269V22.7922V22.7834Z" fill="white"/>
<path d="M84.1104 40.706H84.8408C85.8704 40.7235 85.9936 40.5829 85.9936 39.6424V32.7775C85.9936 31.837 85.8704 31.6963 84.8408 31.7139H84.1104V30.3866H90.3848V31.7139H89.6368C88.6072 31.6963 88.4664 31.837 88.484 32.7775V39.6424C88.4664 40.5829 88.6072 40.7235 89.6368 40.706H90.3848V42.0332H84.1104V40.706Z" fill="white"/>
<path d="M98.2167 42.0332H91.9775V40.706H92.6639C93.6759 40.7235 93.7991 40.5829 93.7991 39.6424V32.7951C93.7991 31.837 93.6759 31.6963 92.6639 31.7139H91.9775V30.3866H98.9383C100.496 30.3866 101.49 30.5976 102.23 31.0986C102.881 31.5381 103.242 32.3028 103.242 33.1906C103.242 34.0784 102.837 34.9222 102.106 35.4232C101.561 35.7924 101.059 35.9506 99.9063 36.1352C101.658 36.4165 102.212 37.023 102.247 38.6315L102.3 39.66C102.353 40.4247 102.476 40.6356 102.846 40.6356C103.215 40.6356 103.356 40.3895 103.374 38.6931H104.491C104.491 39.8973 104.474 40.2137 104.368 40.6532C104.104 41.8047 103.374 42.3497 102.115 42.3497C100.857 42.3497 99.8975 41.5849 99.8447 40.2225L99.8095 38.8601C99.7391 37.023 99.1583 36.5396 97.0815 36.5396H96.2631V39.6336C96.2631 40.5741 96.3863 40.7147 97.4159 40.6972H98.2343V42.0244L98.2167 42.0332ZM98.2871 35.2211C99.9679 35.2211 100.681 34.6937 100.681 33.4719C100.681 32.2501 100.417 32.2325 99.9503 31.9864C99.5631 31.7754 99.1495 31.7051 98.2519 31.7051H96.2367V35.2123H98.2783L98.2871 35.2211Z" fill="white"/>
<path d="M118.967 36.2055C118.967 39.8885 116.398 42.3673 112.587 42.3673C108.777 42.3673 109.217 41.8399 108.038 40.7587C106.762 39.6072 106.146 38.0866 106.146 36.1089C106.146 34.1311 106.823 32.7247 108.038 31.6524C109.243 30.5712 110.713 30.0438 112.57 30.0438C116.398 30.0438 118.967 32.505 118.967 36.188V36.2055ZM108.882 36.1352C108.882 37.7262 109.146 38.7546 109.789 39.6248C110.44 40.5126 111.382 40.9872 112.57 40.9872C113.758 40.9872 114.682 40.5126 115.333 39.6248C115.966 38.7722 116.239 37.7174 116.239 36.2231C116.239 34.7288 115.958 33.6213 115.333 32.8039C114.664 31.9161 113.722 31.4414 112.57 31.4414C110.264 31.4414 108.882 33.2082 108.882 36.1352Z" fill="white"/>
<path d="M130.02 42.0332L124.247 32.5489V39.6424C124.247 40.5829 124.371 40.7235 125.4 40.706H126.183V42.0332H120.446V40.706H121.247C122.276 40.7235 122.417 40.5829 122.399 39.6424V32.7775C122.417 31.837 122.276 31.6963 121.247 31.7139H120.516V30.3866H125.479L130.636 38.8425V32.7863C130.654 31.8458 130.513 31.7051 129.483 31.7227H128.683V30.3954H134.191V31.7227H133.628C132.599 31.7051 132.458 31.8458 132.475 32.7863V42.042H130.011L130.02 42.0332Z" fill="white"/>
<path d="M90.3144 59.9646H84.0752V58.6373H84.7616C85.7736 58.6549 85.8968 58.5143 85.8968 57.5737V50.7264C85.8968 49.7683 85.7736 49.6277 84.7616 49.6453H84.0752V48.318H91.036C92.5936 48.318 93.588 48.529 94.3272 49.03C94.9784 49.4695 95.3392 50.2342 95.3392 51.122C95.3392 52.0097 94.9344 52.8536 94.204 53.3546C93.6584 53.7238 93.1568 53.882 92.004 54.0666C93.7552 54.3479 94.3096 54.9544 94.3448 56.5629L94.3976 57.5913C94.4504 58.3561 94.5736 58.567 94.9432 58.567C95.3128 58.567 95.4536 58.3209 95.4712 56.6244H96.5888C96.5888 57.8287 96.5712 58.1451 96.4656 58.5846C96.2016 59.7361 95.4712 60.281 94.2128 60.281C92.9544 60.281 91.9952 59.5163 91.9424 58.1539L91.9072 56.7914C91.8368 54.9544 91.256 54.4709 89.1792 54.4709H88.3608V57.565C88.3608 58.5055 88.484 58.6461 89.5136 58.6285H90.332V59.9558L90.3144 59.9646ZM90.3848 53.1524C92.0656 53.1524 92.7784 52.625 92.7784 51.4032C92.7784 50.1815 92.5144 50.1639 92.048 49.9178C91.6608 49.7068 91.2472 49.6365 90.3496 49.6365H88.3344V53.1436H90.376L90.3848 53.1524Z" fill="white"/>
<path d="M111.065 54.1369C111.065 57.8199 108.495 60.2986 104.685 60.2986C100.874 60.2986 101.314 59.7712 100.135 58.6901C98.8592 57.5386 98.2432 56.0179 98.2432 54.0402C98.2432 52.0625 98.9296 50.6561 100.135 49.5837C101.341 48.5026 102.81 47.9752 104.667 47.9752C108.495 47.9752 111.065 50.4364 111.065 54.1193V54.1369ZM100.98 54.0666C100.98 55.6576 101.244 56.686 101.886 57.5562C102.538 58.444 103.479 58.9186 104.667 58.9186C105.855 58.9186 106.779 58.444 107.43 57.5562C108.064 56.7036 108.337 55.6488 108.337 54.1545C108.337 52.6602 108.055 51.5527 107.43 50.7352C106.77 49.8474 105.82 49.3728 104.667 49.3728C102.362 49.3728 100.98 51.1396 100.98 54.0666Z" fill="white"/>
<path d="M125.823 54.1369C125.823 57.8199 123.253 60.2986 119.443 60.2986C115.632 60.2986 116.072 59.7712 114.893 58.6901C113.617 57.5386 113.001 56.0179 113.001 54.0402C113.001 52.0625 113.679 50.6561 114.893 49.5837C116.099 48.5026 117.568 47.9752 119.425 47.9752C123.253 47.9752 125.823 50.4364 125.823 54.1193V54.1369ZM115.738 54.0666C115.738 55.6576 116.002 56.686 116.644 57.5562C117.295 58.444 118.237 58.9186 119.425 58.9186C120.613 58.9186 121.537 58.444 122.188 57.5562C122.822 56.7036 123.095 55.6488 123.095 54.1545C123.095 52.6602 122.813 51.5527 122.188 50.7352C121.519 49.8474 120.578 49.3728 119.425 49.3728C117.119 49.3728 115.738 51.1396 115.738 54.0666Z" fill="white"/>
<path d="M127.574 58.6373H128.251C129.263 58.6549 129.387 58.5143 129.387 57.5562V50.7264C129.387 49.7683 129.263 49.6277 128.251 49.6453H127.574V48.318H138.398V53.1524H137.069C137.016 50.2518 136.435 49.6101 134.007 49.6453H131.842V53.2228H132.141C133.699 53.1876 133.822 53.0294 133.998 51.1132H135.327V56.9321H133.998C133.857 54.8577 133.611 54.5237 132.159 54.5588H131.842V57.565C131.842 58.5231 131.965 58.6637 132.995 58.6461H133.813V59.9734H127.574V58.6461V58.6373Z" fill="white"/>
<path d="M140.369 58.6373H141.099C142.129 58.6549 142.252 58.5143 142.252 57.5737V50.7089C142.252 49.7683 142.129 49.6277 141.099 49.6453H140.369V48.318H146.643V49.6453H145.895C144.865 49.6277 144.725 49.7683 144.742 50.7089V57.5737C144.725 58.5143 144.865 58.6549 145.895 58.6373H146.643V59.9646H140.369V58.6373Z" fill="white"/>
<path d="M157.538 59.9646L151.765 50.4803V57.5738C151.765 58.5143 151.888 58.6549 152.918 58.6373H153.701V59.9646H147.963V58.6373H148.764C149.794 58.6549 149.935 58.5143 149.917 57.5738V50.7089C149.935 49.7683 149.794 49.6277 148.764 49.6453H148.034V48.318H152.997L158.154 56.7739V50.7176C158.171 49.7771 158.031 49.6365 157.001 49.6541H156.2V48.3268H161.709V49.6541H161.146C160.116 49.6365 159.975 49.7771 159.993 50.7176V59.9734H157.529L157.538 59.9646Z" fill="white"/>
<path d="M172.436 59.0592C171.002 60.0525 170.306 60.2986 168.872 60.2986C165.528 60.2986 163.064 57.6792 163.064 54.1369C163.064 50.5946 165.563 47.9752 168.872 47.9752C172.181 47.9752 170.984 48.2389 172.313 49.2497L172.788 48.2565H174.011V52.8008H172.682C172.383 51.5791 172.137 51.0517 171.6 50.4803C170.949 49.7683 170.113 49.3992 169.189 49.3992C167.112 49.3992 165.801 51.2538 165.801 54.1633C165.801 57.0727 167.094 58.778 169.312 58.778C171.53 58.778 170.834 58.5319 171.354 58.0924C171.776 57.7232 171.917 57.3804 171.917 56.6772V56.0267C171.934 55.139 171.794 55.0511 170.588 55.0686H169.858V53.7414H176.009V55.0686H175.278C174.442 55.0862 174.354 55.1917 174.337 56.1498V60.0437H173.061L172.445 59.068L172.436 59.0592Z" fill="white"/>
<path d="M36.5376 72.9912C56.7168 72.9912 73.0752 56.6516 73.0752 36.4956C73.0752 16.3396 56.7168 0 36.5376 0C16.3584 0 0 16.3396 0 36.4956C0 56.6516 16.3584 72.9912 36.5376 72.9912Z" fill="white"/>
<path d="M36.5378 4.1752C18.6914 4.1752 4.17139 18.6785 4.17139 36.5044C4.17139 54.3303 18.6914 68.8336 36.5378 68.8336C54.3842 68.8336 68.9042 54.3303 68.9042 36.5044C68.9042 18.6785 54.3842 4.1752 36.5378 4.1752ZM66.2114 35.1683H60.0954C59.4266 23.2141 49.7906 13.6155 37.8138 12.9739V6.8649C53.161 7.51535 65.5338 19.8476 66.2114 35.1683ZM35.1474 15.7866V23.0295H28.0722C28.3274 22.4757 28.5914 21.9483 28.8818 21.4385C30.6418 18.3005 32.833 16.3492 35.1474 15.7866ZM35.1474 25.6928V35.1683H25.4234C25.5378 31.7842 26.0922 28.5583 27.0338 25.6928H35.1474ZM35.1474 37.8317V47.3072H27.0338C26.0922 44.4504 25.5378 41.2246 25.4234 37.8317H35.1474ZM35.1474 49.9617V57.2046C32.8242 56.642 30.6418 54.6819 28.8818 51.5527C28.6002 51.0429 28.3274 50.5155 28.0722 49.9617H35.1474ZM37.8138 57.2309V49.9617H45.0122C44.757 50.5155 44.493 51.0429 44.2026 51.5527C42.4074 54.7434 40.181 56.7123 37.8138 57.2397V57.2309ZM37.8138 47.2984V37.8229H47.661C47.5466 41.207 46.9922 44.4329 46.0506 47.2984H37.8138ZM37.8138 35.1683V25.6928H46.0506C46.9922 28.5495 47.5466 31.7754 47.661 35.1683H37.8138ZM37.8138 23.0383V15.7691C40.181 16.2877 42.4074 18.2654 44.2026 21.4561C44.4842 21.9659 44.757 22.4933 45.0122 23.0471H37.8138V23.0383ZM46.5258 20.1464C45.901 19.0301 45.2146 18.0368 44.493 17.1666C47.6258 18.4588 50.3802 20.4804 52.5362 23.0295H47.9074C47.4938 22.0099 47.0362 21.043 46.5258 20.1376V20.1464ZM26.5586 20.1464C26.0482 21.0518 25.5906 22.0187 25.177 23.0383H20.5482C22.7042 20.4892 25.4586 18.4588 28.5914 17.1754C27.861 18.0456 27.1834 19.0389 26.5586 20.1552V20.1464ZM18.6386 25.6928H24.2442C23.373 28.6023 22.8626 31.8194 22.757 35.1683H15.6642C15.8842 31.7227 16.9402 28.4968 18.6386 25.6928ZM22.757 37.8317C22.8626 41.1718 23.373 44.3889 24.2442 47.3072H18.6386C16.9402 44.512 15.8842 41.2861 15.6642 37.8317H22.757ZM25.177 49.9617C25.5906 50.9813 26.0482 51.9482 26.5586 52.8536C27.1834 53.9699 27.8698 54.9632 28.5914 55.8334C25.4586 54.5412 22.7042 52.5196 20.5482 49.9705H25.177V49.9617ZM46.5258 52.8536C47.0362 51.9482 47.4938 50.9813 47.9074 49.9617H52.5362C50.3802 52.5108 47.6258 54.5412 44.493 55.8246C45.2234 54.9544 45.901 53.9611 46.5258 52.8448V52.8536ZM54.4458 47.2984H48.8402C49.7114 44.3889 50.2218 41.1718 50.3274 37.8229H57.4202C57.2002 41.2685 56.1442 44.4944 54.4458 47.2984ZM50.3274 35.1683C50.2218 31.8282 49.7114 28.6111 48.8402 25.6928H54.4458C56.1442 28.488 57.2002 31.7139 57.4202 35.1683H50.3274ZM35.1474 6.8649V12.9739C23.2322 13.6683 13.6578 23.2492 12.989 35.1595H6.87299C7.55059 19.8827 19.853 7.56809 35.1474 6.85611V6.8649ZM6.87299 37.8317H12.989C13.6578 49.742 23.2234 59.3229 35.1474 60.0173V66.1263C19.853 65.4143 7.55059 53.1085 6.87299 37.8229V37.8317ZM37.8138 66.1351V60.0261C49.7906 59.3845 59.4178 49.7859 60.0954 37.8317H66.2114C65.5338 53.1524 53.161 65.4846 37.8138 66.1351Z" fill="#114CA0"/>
</svg>
